<svg id="Layer_1" data-name="Layer 1" xmlns="http://www.w3.org/2000/svg" viewBox="0 0 418.88 333.37"><defs><style>.cls-1,.cls-2{fill:#fff;}.cls-1{stroke:#000;stroke-miterlimit:10;}.cls-3{fill:#181d27;}.cls-4{fill:#000102;}.cls-5{fill:#070707;}.cls-6{fill:#4527af;}.cls-7{fill:#050505;}</style></defs><title>airplane-illus</title><path class="cls-1" d="M427.21,269.79c-8-4.06-21.45-5-21.45-5C393,264,391,263.31,391,263.31c-2.38-.85-4.75-2.76-9.5-6.59a33.63,33.63,0,0,0-5.52-3.63c-.78-.41-1.63-.82-2.58-1.22a22.37,22.37,0,0,0-4-1.24c-1.89-.42-3.8-.73-5.7-1a3.16,3.16,0,0,1-.32,0,1.55,1.55,0,0,1-.67-.14c-24.33-2.55-48.54,9-52.38,10.87l-.22.11c-2,.95-3.82,1.95-5.53,3l-.23.19a.49.49,0,0,1-.28.11l-1,.62-.07.05a10,10,0,0,1-1.11.91.54.54,0,0,1-.37.06c-15.14,10.26-17.83,22.05-17.83,22.05H432.39c2.52.29,5.36.32,6.72-.86C442.36,283.83,436.65,274.61,427.21,269.79Z" transform="translate(-21.65 -17.57)"/><path class="cls-1" d="M165.75,300.94c-8-4.06-21.45-5-21.45-5-12.82-.79-14.72-1.46-14.72-1.46-2.38-.85-4.75-2.76-9.5-6.59a33.63,33.63,0,0,0-5.52-3.63c-.78-.41-1.63-.82-2.58-1.22a22.63,22.63,0,0,0-4-1.24c-1.89-.42-3.8-.73-5.71-1a1.48,1.48,0,0,1-.31,0,1.55,1.55,0,0,1-.67-.14c-24.33-2.55-48.54,9-52.39,10.87l-.22.11c-2,.95-3.81,1.95-5.52,3l-.23.19a.52.52,0,0,1-.28.11l-1,.62-.07.05a10,10,0,0,1-1.11.91.54.54,0,0,1-.37.06c-15.14,10.26-17.83,22-17.83,22H170.92c2.52.29,5.37.32,6.73-.86C180.9,315,175.18,305.76,165.75,300.94Z" transform="translate(-21.65 -17.57)"/><path class="cls-1" d="M340.4,20.91l-13,18.31,5.91,9.36a.73.73,0,0,0,.72.36h0a.75.75,0,0,0,.59-.58l6.07-26.61a.83.83,0,0,0-.28-.83Z" transform="translate(-21.65 -17.57)"/><path d="M366.13,281.8c-12.25-9.43-33-11.66-33-11.66-19.72-1.82-22.65-3.4-22.65-3.4-3.67-2-7.32-6.41-14.62-15.29a57.31,57.31,0,0,0-8.49-8.42,47.39,47.39,0,0,0-4-2.84,27.38,27.38,0,0,0-6.17-2.87,63.67,63.67,0,0,0-8.79-2.24,1.79,1.79,0,0,1-.48.07,1.7,1.7,0,0,1-1-.33c-37.43-5.9-74.68,21-80.6,25.26l-.33.24a103.48,103.48,0,0,0-8.5,6.89l-.36.45a.63.63,0,0,1-.43.26c-.51.47-1,.95-1.5,1.43l-.12.13a19.36,19.36,0,0,1-1.7,2.11.57.57,0,0,1-.57.12c-23.3,23.82-27.44,51.19-27.44,51.19H374.09c3.88.68,8.25.75,10.35-2C389.44,314.39,380.65,293,366.13,281.8Z" transform="translate(-21.65 -17.57)"/><path class="cls-2" d="M92.33,109,95,129l14.71-13.61Z" transform="translate(-21.65 -17.57)"/><path class="cls-2" d="M99.58,131.39l-10.94,3.55a.78.78,0,0,1-1-.51.74.74,0,0,1,.51-1l10.94-3.55a.8.8,0,0,1,1,.51A.74.74,0,0,1,99.58,131.39Z" transform="translate(-21.65 -17.57)"/><path class="cls-2" d="M100.82,135.2l-10.94,3.55a.8.8,0,0,1-1-.52.73.73,0,0,1,.52-1l10.93-3.56a.79.79,0,0,1,1,.52A.74.74,0,0,1,100.82,135.2Z" transform="translate(-21.65 -17.57)"/><path class="cls-2" d="M80,108.31,71.06,123.2l20.38,1.58Z" transform="translate(-21.65 -17.57)"/><path d="M94.11,101l-12,16,16.41,10.87,12-16Z" transform="translate(-21.65 -17.57)"/><path class="cls-2" d="M124.51,123.31c2.85,8.77-1.87,17.4-11.18,20.42s-19.13-1.63-22-10.4,2.34-18.4,11.65-21.42S121.27,113.35,124.51,123.31Z" transform="translate(-21.65 -17.57)"/><path class="cls-3" d="M113.52,144.32c-9.67,3.14-20-1.73-22.91-10.85s2.5-19.09,12.17-22.23c9.84-3.2,19,1.65,22.33,11.78C128.09,132.22,123.27,141.15,113.52,144.32Zm-10.3-31.73c-9,2.9-14,12.09-11.24,20.53s12.2,12.92,21.16,10,13.42-11.08,10.68-19.52C120.72,114.09,112.35,109.62,103.22,112.59Z" transform="translate(-21.65 -17.57)"/><path class="cls-3" d="M113.81,123.89a2,2,0,1,0-2.69-1.27A2.1,2.1,0,0,0,113.81,123.89Z" transform="translate(-21.65 -17.57)"/><path class="cls-3" d="M121.29,114.93a.68.68,0,0,1-.62-.08.58.58,0,0,1-.09-.9l3.15-4a.66.66,0,0,1,1-.12.58.58,0,0,1,.09.9l-3.15,4C121.53,114.76,121.47,114.87,121.29,114.93Z" transform="translate(-21.65 -17.57)"/><path d="M100.9,109.68l-20.29,1.51.88,19.31L101.78,129Z" transform="translate(-21.65 -17.57)"/><path class="cls-2" d="M210.43,214.43c8.93,14.29,23.93,37.28,30.89,62.6,5.48,20,4,41,3.4,63l48.61,7.65s-.26-7.66-6.61-11.33-9.9-10-8.84-42.72-19.1-80.3-33.37-97.16c-3.86-4.55-7.28-8.72-10.22-12.18A307.83,307.83,0,0,0,210.43,214.43Z" transform="translate(-21.65 -17.57)"/><path class="cls-3" d="M243.77,343.84v.79l50.42,6.31-.05-1c.06-.44-.49-9-7.07-13.07-5.48-3.3-9.7-8.92-9-46.59.33-17.63-4.14-38.36-10.45-57.3a9.45,9.45,0,0,1-2.05-2.76,1.79,1.79,0,0,1-.55-1.58,1.65,1.65,0,0,1-.9-1.22,1.88,1.88,0,0,1-.2-.7.54.54,0,0,1-.12-.09c7.5,20.54,13.17,44.14,12.83,63.78-.59,35.53,2.65,43.73,9.79,48.07,4.63,2.84,5.84,8.35,6.21,10.67l-47.26-5.84c0-2.5,0-5.1.11-7.58.39-21.84.72-42.55-4.35-62.25-6.9-26.54-21-50.29-30.28-66.07l-1.29-2.23c4.78-8.21,10.11-16.34,16.07-24.65a1.74,1.74,0,0,1-.73-1.72c-6.24,8.72-11.79,17.23-16.87,25.8l-.26.42,1.86,3.11c4.25,7.22,9.52,16.15,14.63,26.24a2.94,2.94,0,0,1,.38.75,197.7,197.7,0,0,1,15,38.59c5,19.46,4.61,40.05,4.23,61.77C243.88,338.3,243.79,341,243.77,343.84Z" transform="translate(-21.65 -17.57)"/><path class="cls-4" d="M279.29,326.93c-11.54,0-23.12-.44-34.75.16q0,8.19-.06,16.67l49.69,6.54s-.46-7.79-7-11.37C283.75,336.87,281.07,334.2,279.29,326.93Z" transform="translate(-21.65 -17.57)"/><path class="cls-2" d="M279.24,330.39a24.33,24.33,0,0,0-6.24,2.85c-.58.28,0,1.12.53.83a21.63,21.63,0,0,1,6-2.69A.52.52,0,0,0,279.24,330.39Z" transform="translate(-21.65 -17.57)"/><path class="cls-2" d="M280.91,333.56a42.05,42.05,0,0,1-6.52,3.4c-.59.23-.14,1.11.46.88a43.41,43.41,0,0,0,6.52-3.4C281.9,334.08,281.44,333.2,280.91,333.56Z" transform="translate(-21.65 -17.57)"/><path class="cls-2" d="M194.66,184.27c-9.11,14.15-23.63,37.47-43.73,54.43-15.85,13.38-35.45,20.92-55.63,29.74L109,315.78s6.8-3.47,7.52-10.75,4.88-13.17,34.94-26,64.66-51.3,74-71.32c2.48-5.43,4.79-10.28,6.69-14.42A309.14,309.14,0,0,0,194.66,184.27Z" transform="translate(-21.65 -17.57)"/><path class="cls-3" d="M233.32,193.79a314.48,314.48,0,0,0-37.46-9.5l-.5,0L193.48,187c-9.37,14.1-23.64,35.5-42.77,51.15-14.12,11.51-31.06,18.53-49,25.85-2.29,1-4.63,1.85-6.91,2.83l-.6.24,13.33,49,1-.22c.25-.14,7.26-3.66,8.08-11.25.67-6.38,3.67-12.16,34.87-24.9,11.15-4.59,22.78-12.45,33.56-21.54a.39.39,0,0,1,.14-.44,13.9,13.9,0,0,0,1.43-1.63c.46-.5.93-1,1.37-1.47a.64.64,0,0,1,.1-.18c.5-.6,1.05-1.14,1.51-1.74a3.55,3.55,0,0,1,.63-1.07,1.63,1.63,0,0,0,.09-.19.53.53,0,0,1,.14-.23c-12.41,11.36-26.46,21.54-39.78,27-29.29,12-34.94,17.89-35.84,26.07-.54,5.27-4.62,8.43-6.42,9.56L95.9,267.92c2.16-.92,4.29-1.74,6.29-2.5,18.1-7.39,35.14-14.38,49.41-26.06,19.25-15.71,33.56-37.2,43.07-51.46l1.34-2a309.6,309.6,0,0,1,35.92,9c-1.91,3.91-4.12,8.47-6.6,13.57-2.52,5.28-6.93,11.91-12.61,19a2.45,2.45,0,0,1,.87,1.09,2.09,2.09,0,0,1,.22.2c5.89-7.34,10.47-14.2,13.09-19.63s4.95-10.2,6.92-14.31l.36-.83Z" transform="translate(-21.65 -17.57)"/><path d="M123.26,292.45c-4.1-10.6-7.85-21.31-12.55-31.69-5,1.92-10.1,3.84-15.27,5.83l11.76,47.85s6.94-3.19,8-10.44C115.7,300.08,117.24,296.69,123.26,292.45Z" transform="translate(-21.65 -17.57)"/><path class="cls-2" d="M267.57,236.7c-10.9-25.5-31.6-46.3-43.9-56.4-4.6-3.8-8.7-7.3-12.2-10.2-1,1.7-2,3.3-3,5a310,310,0,0,0-33.4,1.7c-4.4,14.3-10.9,36.7-22.5,56.8,8.3,8.8,28.1,22.4,32.4,23.8,9.3-12.7,15.6-27.4,19.8-40.6,8.6,9.9,18.2,22,25.8,35.5C242.27,249.8,264.17,239.7,267.57,236.7Z" transform="translate(-21.65 -17.57)"/><path class="cls-3" d="M266.56,232.23a1.62,1.62,0,0,1-.17-.35l-.3-.61a1.75,1.75,0,0,1-.52-1.07h0a1.74,1.74,0,0,1-.55-1.1c-.13-.25-.24-.49-.37-.73a1.76,1.76,0,0,1-.54-1c-13-24.34-33.32-42.29-39.74-47.65-4.6-3.8-8.7-7.2-12.2-10.2l-.7-.6-.5.7c-.9,1.6-1.9,3.1-2.8,4.7a314.21,314.21,0,0,0-33.1,1.7l-.5.1-1,3.2c-4.3,14-10.7,35.1-21.6,53.9l-.3.5.4.4c8,8.5,28,22.5,32.7,24l.25.1a.38.38,0,0,1,.14-.44,13.9,13.9,0,0,0,1.43-1.63c.45-.49.92-1,1.37-1.46a.5.5,0,0,1,.1-.19l.14-.16a144.08,144.08,0,0,0,17.07-36c7,8.2,17,20.4,24.8,34.4l.3.5.5-.1c11.5-2.5,33.7-12.6,37.4-15.8l.4-.4-.2-.5C267.87,235,267.22,233.61,266.56,232.23ZM231,251.5c-8.2-14.6-18.5-27-25.6-35.2l-.9-1-.4,1.3c-5,15.5-11.5,28.9-19.4,39.9-4.9-2-22.9-14.4-31.2-23,10.8-18.8,17.2-39.8,21.4-53.7l.7-2.2a308.41,308.41,0,0,1,32.8-1.7h.4l.2-.4c.9-1.5,1.7-2.9,2.6-4.3,3.4,2.9,7.3,6.1,11.6,9.7,7.2,5.9,31.2,27.3,43.5,55.6C262.47,239.6,242.57,248.8,231,251.5Z" transform="translate(-21.65 -17.57)"/><path class="cls-2" d="M134.47,303.1a25,25,0,0,0-6.3-2.7c-.6-.2-.9.8-.3.9a22,22,0,0,1,6.1,2.6C134.57,304.2,135.07,303.4,134.47,303.1Z" transform="translate(-21.65 -17.57)"/><path class="cls-2" d="M133.37,306.6a43.45,43.45,0,0,1-7.1-1.8.47.47,0,0,0-.3.9,43.45,43.45,0,0,0,7.1,1.8C133.77,307.7,134,306.7,133.37,306.6Z" transform="translate(-21.65 -17.57)"/><path class="cls-3" d="M205.67,214.5h-.2a.72.72,0,0,1-.5-.9,98.19,98.19,0,0,0,3.4-14.7l.1-.5.5-.1a38.46,38.46,0,0,0,6.5-2.2.76.76,0,0,1,.6,1.4,34.32,34.32,0,0,1-6.3,2.2,102.59,102.59,0,0,1-3.4,14.4C206.37,214.3,206.07,214.5,205.67,214.5Z" transform="translate(-21.65 -17.57)"/><path class="cls-3" d="M170,256.5a8.66,8.66,0,0,0-.9,5.9c.1.6,1.1.4.9-.3a7.26,7.26,0,0,1,.8-5.2C171.17,256.5,170.27,256,170,256.5Z" transform="translate(-21.65 -17.57)"/><path class="cls-3" d="M265.27,252.4a7.76,7.76,0,0,1-3.7-3c-.3-.5-1.2,0-.8.5a8.06,8.06,0,0,0,4.3,3.4C265.67,253.5,265.87,252.6,265.27,252.4Z" transform="translate(-21.65 -17.57)"/><path d="M188,175h-18.8a17.67,17.67,0,0,1-17.7-17.7V122a17.67,17.67,0,0,1,17.7-17.7H188a17.67,17.67,0,0,1,17.7,17.7v35.2A17.69,17.69,0,0,1,188,175Z" transform="translate(-21.65 -17.57)"/><path class="cls-2" d="M156.47,153.3a.79.79,0,0,1-.8-.8V123.4c0-8.1,6-14.8,13.4-14.8h14.2a.79.79,0,0,1,.8.8.74.74,0,0,1-.8.8h-14.2c-6.5,0-11.9,5.9-11.9,13.3v29.1C157.27,152.9,157,153.3,156.47,153.3Z" transform="translate(-21.65 -17.57)"/><path class="cls-2" d="M163.07,121.6a.68.68,0,0,1-.7-.7.77.77,0,0,1,.7-.8l16.2-.4a.75.75,0,1,1,.1,1.5Z" transform="translate(-21.65 -17.57)"/><path class="cls-2" d="M216.67,82c-4.9-5.1-14-6.9-19.4-2s-5.3,13.5.1,19.5l.1.1a9.14,9.14,0,0,0-1.3,1.6c-2.2,3.7-.4,7.4,3.1,7.7a7.82,7.82,0,0,0,8.1-4.6,14.32,14.32,0,0,0,9.4-2.8C224.87,95.4,222.27,87.8,216.67,82Z" transform="translate(-21.65 -17.57)"/><path class="cls-3" d="M200,109.7h-.9a5,5,0,0,1-4.2-2.9,6,6,0,0,1,.6-6l.9-1.2a16,16,0,0,1-3.8-10.2,13.28,13.28,0,0,1,4.2-9.9c5.8-5.2,15.4-3.1,20.4,2.1,2.7,2.8,5.8,7.1,5.4,11.9q-.45,4.95-5.4,8.7a15.08,15.08,0,0,1-9.4,3A8.72,8.72,0,0,1,200,109.7Zm5.2-31.8a10.35,10.35,0,0,0-7.3,2.7,11.69,11.69,0,0,0-3.7,8.8,14.6,14.6,0,0,0,3.9,9.7l.5.5-.4.6a7.89,7.89,0,0,0-1.2,1.5,4.83,4.83,0,0,0-.5,4.6,3.63,3.63,0,0,0,3,2,7.21,7.21,0,0,0,7.4-4.1l.2-.5h.5a13.37,13.37,0,0,0,8.9-2.6c3-2.3,4.6-4.8,4.8-7.7.3-4.2-2.5-8.2-5-10.7A15.88,15.88,0,0,0,205.17,77.9Z" transform="translate(-21.65 -17.57)"/><path class="cls-3" d="M203.37,101a5.05,5.05,0,0,0-5.4,3.2c-.2.6.7,1,.9.4a4.12,4.12,0,0,1,4.3-2.7C203.77,102.1,204,101.1,203.37,101Z" transform="translate(-21.65 -17.57)"/><path class="cls-5" d="M205.77,79.3c-1.4,2.9-10.1,11.4-4.6,15.3,1.4,1,2.6,1.2,2.1,2.8-.8,1.6-2.4.5-2.4.5a12.77,12.77,0,0,0-4.2,3.6c-8.9.9-8.4-8.2-6.7-10.7,0,0-4.5-10,3.8-11.2,0,0,2.8-12.1,9-10.6C210.67,71,205.77,79.3,205.77,79.3Z" transform="translate(-21.65 -17.57)"/><path d="M208.17,110.9c-17.4,4.4-28.5,15.7-35,41.1s-6.9,30.4-6.9,30.4l57.5-2.1C223.67,180.3,246.87,101.1,208.17,110.9Z" transform="translate(-21.65 -17.57)"/><path class="cls-3" d="M225.14,178.06c2.82-10.52,12.68-51.26-.17-64.56-3.9-4.1-9.6-5.2-16.9-3.4-18.7,4.7-29.3,17.2-35.6,41.7-6.5,25.2-6.9,30.3-6.9,30.5l-.1.8,58.8-2.1.2-.5.41-1.47A1.93,1.93,0,0,1,225.14,178.06Zm-2,1.54-56,2c.3-2.2,1.6-9.6,6.7-29.4,6.1-23.9,16.4-36,34.5-40.6a26,26,0,0,1,5.9-.8,12.66,12.66,0,0,1,9.6,3.8C237,128.2,224.67,174.2,223.17,179.6Z" transform="translate(-21.65 -17.57)"/><path class="cls-2" d="M208.17,110.9c15.8-4.5,45.1-6.9,48.1-11.2s17.7-33.2,22.3-37.3c2.3-2,5.2.3,5.2.3a3.45,3.45,0,0,1,3.9.9,27.61,27.61,0,0,0,3.2-3.7c2-2.8,3.2-5,4.7-4.2,3.6,2.1-5.9,16.1-6.5,17.4l3.1-.4s.1-5.8,2.9-5.8,1.2,9.6.2,12.3c-1.5,4.3-4.7,5.2-10,9.4-4.3,3.4-3.8,34.3-34.5,40.4-5.6,1.1-20.6,4.6-24.7,4.1C207.37,131.1,208.17,110.9,208.17,110.9Z" transform="translate(-21.65 -17.57)"/><path class="cls-3" d="M226.87,133.9H226c-19.1-2-18.5-22.8-18.5-23v-.5l.5-.1c6.5-1.8,15.1-3.3,23.4-4.7,11.1-1.9,22.7-3.9,24.3-6.2,1-1.5,3.5-6,6.4-11.2,5.7-10.4,12.9-23.4,16-26.2a4.77,4.77,0,0,1,5.8,0,4.06,4.06,0,0,1,3.7.7,31.15,31.15,0,0,0,2.6-3c.2-.3.5-.7.7-1,1.7-2.4,3.1-4.5,5-3.4a2.49,2.49,0,0,1,1.1,1.5c.5,2.1-1,5.8-3.2,9.8a2.66,2.66,0,0,1,1.2-.3,2.09,2.09,0,0,1,1.6.8c1.7,2.4.2,10.2-.6,12.5-1.2,3.3-3.3,4.8-6.3,6.8-1.2.8-2.5,1.7-4,2.9-.9.7-1.7,3.4-2.6,6.6-3.1,10.3-8.8,29.3-32.2,33.9-1.1.2-2.6.5-4.3.9C239.87,132,230.87,133.9,226.87,133.9Zm-18-22.5c0,3.2.9,19.1,17.2,20.9,3.2.3,13.4-1.8,20.2-3.2,1.7-.4,3.2-.7,4.4-.9,22.5-4.4,27.9-22.2,31.1-32.9,1.1-3.8,1.9-6.3,3.2-7.3,1.5-1.2,2.9-2.1,4-2.9,2.9-2,4.7-3.3,5.7-6.1s1.9-9.5.8-11.1c-.1-.2-.2-.2-.3-.2-1.7,0-2.1,4-2.1,5.1v.7l-5.3.5.6-1.2c.1-.2.4-.6.9-1.4,1.7-2.8,7.1-11.4,6.3-14.4a1,1,0,0,0-.4-.6c-.6-.4-1.6.9-3,3-.2.3-.5.7-.7,1a28.3,28.3,0,0,1-3.3,3.8l-.6.5-.5-.6a2.77,2.77,0,0,0-3-.7l-.4.2-.4-.3c-.1-.1-2.4-1.8-4.2-.3-2.9,2.6-10.3,16-15.7,25.8-3,5.5-5.4,9.9-6.5,11.4-1.9,2.7-10.8,4.3-25.3,6.8C223.57,108.3,215.27,109.7,208.87,111.4Zm82.8-41.3c-.4.7-.8,1.3-1.2,2v.1l1-.1A16.83,16.83,0,0,1,291.67,70.1Z" transform="translate(-21.65 -17.57)"/><path d="M242.17,121.6c-.9-5.7-2.5-11.1-3.9-16.6-10,1.8-21.9,3.5-30.2,5.9,0,0-.8,20.2,17.8,22.2,2.9.3,10.9-1.3,17.5-2.6C243.07,127.5,242.67,124.6,242.17,121.6Z" transform="translate(-21.65 -17.57)"/><path class="cls-2" d="M226.87,133.9H226c-19.1-2-18.5-22.8-18.5-23v-.5l.5-.1c6.5-1.8,15.1-3.3,23.4-4.7,2.3-.4,4.6-.8,6.8-1.2l.7-.1.2.7c.3,1.3.7,2.5,1,3.8,1.1,4.2,2.2,8.5,2.9,12.9.4,2.9.9,5.9,1.2,8.8l.1.7-.7.1C237.17,132.5,230.27,133.9,226.87,133.9Zm-18-22.5c0,3.2.9,19.1,17.2,20.9,2.6.3,10.1-1.1,16.5-2.5-.3-2.7-.7-5.5-1.1-8.1-.7-4.3-1.8-8.6-2.9-12.8-.3-1-.6-2.1-.8-3.1-2,.4-4.1.7-6.1,1.1C223.57,108.3,215.27,109.7,208.87,111.4Z" transform="translate(-21.65 -17.57)"/><path class="cls-6" d="M283,62.6a21.92,21.92,0,0,0-3.5,5.9c-.3.6.6,1.1.8.5,1-2,1.8-4.1,3.3-5.7C284.07,62.8,283.37,62.1,283,62.6Z" transform="translate(-21.65 -17.57)"/><path class="cls-6" d="M287.27,63.4c-.8,1.6-1.6,3.2-2.4,4.9-.3.6.6,1.1.8.5.8-1.6,1.6-3.2,2.4-4.9C288.37,63.3,287.57,62.8,287.27,63.4Z" transform="translate(-21.65 -17.57)"/><path d="M181.37,147c6.1-9.9,17.6-23.7,26.8-36.1-18.8,4.7-36,15.7-46.4,28.5C168.17,142,175,144.1,181.37,147Z" transform="translate(-21.65 -17.57)"/><path class="cls-7" d="M181.67,147.9l-.6-.3c-3.6-1.6-7.5-3-11.2-4.4-2.8-1-5.6-2.1-8.4-3.2l-.9-.4.6-.8c10.9-13.4,28.4-24.1,46.8-28.7l2-.5-1.2,1.7c-3.3,4.4-6.9,9.1-10.3,13.6-6.4,8.3-12.5,16.2-16.4,22.5ZM163,139c2.5,1,5,1.9,7.4,2.8,3.5,1.3,7.2,2.6,10.7,4.2,4-6.3,9.9-13.9,16.2-22.1,3-3.9,6.1-7.9,9-11.8C189.27,116.8,173.37,126.8,163,139Z" transform="translate(-21.65 -17.57)"/><path class="cls-2" d="M196.47,147.3c1.8-8,7-10.8,10.6-11.3s6.1-.6,6.1,2.1C213.17,142.6,196.47,147.3,196.47,147.3Z" transform="translate(-21.65 -17.57)"/><path class="cls-2" d="M212,147.5c-1.9-8.1-3-18.5-8.9-24.9-4.3-4.7-10.2-6.1-16.3-6.2a45.67,45.67,0,0,0-5.7,4.1c6.8-.6,14.4-.4,19.2,5,4.6,5.1,5.5,13.2,7,19.6,1.8,7.6,5.8,17.7-.8,24.1-5.5,5.3-14.6,6.4-21.9,6.3-2.5,0-2.5,3.9,0,3.9,8.3.1,17.7-1.3,24.1-7C216.27,165.6,214.07,156.1,212,147.5Z" transform="translate(-21.65 -17.57)"/><path class="cls-2" d="M196.07,147.3c-8.3,6.2-17.7,13.4-18.7,11.2-1.3-2.9,2.2-9.2,7.6-17a100.54,100.54,0,0,0-19.4-6.5c-13,13.4-18.6,29.6-9.9,42.5,16,23.7,36.2,4,48.4-8.5,4.8-4.9,12-13.7,12.7-15.8,1.5-4.5-.4-5.3-.4-5.3s1.7-4.9-2.5-6c0,0,1.1-9.6-11.9.7" transform="translate(-21.65 -17.57)"/><path class="cls-3" d="M173.07,189.4a8.6,8.6,0,0,1-1.6-.1c-6.1-.5-11.7-4.4-16.4-11.4-8.2-12.2-4.5-28.4,10-43.4l.3-.3.4.1a111.56,111.56,0,0,1,19.5,6.5l.8.4-.5.7c-2.2,3.2-9,12.9-7.5,16.3,1.4.6,10.6-6.3,16-10.4l1.5-1.1a.68.68,0,0,1,1,.2c.2.4.2.8-.2,1l-1.5,1.1c-9.3,7-15.1,11.1-17.3,10.6a1.59,1.59,0,0,1-1-.8c-1.2-2.9.9-8,7.1-17a102.77,102.77,0,0,0-18-6c-13.7,14.3-17.3,29.7-9.5,41.2,4.5,6.6,9.6,10.2,15.3,10.7,12.1,1.1,25-12.2,32-19.3,5-5.2,11.9-13.7,12.6-15.5,1.2-3.6.1-4.3.1-4.3l-.7-.3.2-.7a5.3,5.3,0,0,0-.1-3.6,2.77,2.77,0,0,0-2-1.4l-.6-.2.1-.6s.2-2.3-1.1-3c-.9-.5-3.4-.6-9.6,4.4a.78.78,0,0,1-1-1.2c5.3-4.3,9-5.8,11.3-4.5,1.6.9,1.8,2.9,1.8,3.9a4.16,4.16,0,0,1,2.3,2,6.58,6.58,0,0,1,.3,4.3c.6.6,1.4,2.2.2,5.8-.8,2.4-8.4,11.5-12.9,16.1C195.17,179.2,184.27,189.4,173.07,189.4Z" transform="translate(-21.65 -17.57)"/><path d="M179.57,123.6a78.28,78.28,0,0,0-17.8,15.8c6.5,2.7,13.2,4.7,19.6,7.6a186,186,0,0,1,11.2-15.7A71.7,71.7,0,0,0,179.57,123.6Z" transform="translate(-21.65 -17.57)"/><path class="cls-2" d="M181.67,147.9l-.6-.3c-3.6-1.6-7.5-3-11.2-4.4-2.8-1-5.6-2.1-8.4-3.2l-.9-.4.6-.8a77.66,77.66,0,0,1,18-15.9l.3-.2.4.2a67.7,67.7,0,0,1,13.1,7.8l.6.5-.5.6c-3.8,5-8.1,10.8-11.1,15.6ZM163,139c2.5,1,5,1.9,7.4,2.8,3.5,1.3,7.2,2.6,10.7,4.2,2.9-4.6,6.8-9.9,10.4-14.6a76.46,76.46,0,0,0-11.8-7A82.55,82.55,0,0,0,163,139Z" transform="translate(-21.65 -17.57)"/><path class="cls-3" d="M215.37,147.4c-2.1-.2-3.5,1.4-4.7,2.9-.4.5.3,1.2.7.7,1-1.3,2.2-2.8,4-2.6A.5.5,0,0,0,215.37,147.4Z" transform="translate(-21.65 -17.57)"/><path class="cls-3" d="M212.57,141.9a11.09,11.09,0,0,0-5.4,3.4c-.4.5.3,1.2.7.7a9.83,9.83,0,0,1,4.9-3.1A.51.51,0,0,0,212.57,141.9Z" transform="translate(-21.65 -17.57)"/><path class="cls-2" d="M183.37,146.9a.76.76,0,0,1-.5-.2.9.9,0,0,1-.1-1.1l6.9-7.9a.78.78,0,1,1,1.2,1l-6.9,7.9A.6.6,0,0,1,183.37,146.9Z" transform="translate(-21.65 -17.57)"/><path class="cls-3" d="M206.17,140a.84.84,0,0,1-.7-.4l-2.3-5a.76.76,0,1,1,1.4-.6l2.3,5a.73.73,0,0,1-.4,1Z" transform="translate(-21.65 -17.57)"/><path d="M418,254.89" transform="translate(-21.65 -17.57)"/><path class="cls-2" d="M121.71,293.9a24.71,24.71,0,0,0-3.77-5.73c-.37-.52-1.11.14-.74.66a22.07,22.07,0,0,1,3.59,5.52C121.06,294.87,122,294.52,121.71,293.9Z" transform="translate(-21.65 -17.57)"/><path class="cls-2" d="M118.61,295.32a25.07,25.07,0,0,0-4.3-5.35c-.42-.48-1.09.24-.68.73a22,22,0,0,1,4.1,5.15C118,296.34,118.93,295.9,118.61,295.32Z" transform="translate(-21.65 -17.57)"/><path d="M342.66,17.57l-18.38,18,2.59,13.22a.75.75,0,0,0,.57.66h0a.8.8,0,0,0,.76-.52l14.43-30.25a1.26,1.26,0,0,0,0-1.09Z" transform="translate(-21.65 -17.57)"/><path d="M342.78,17.67a1.31,1.31,0,0,0-1.11,0L310.85,32.53a.78.78,0,0,0-.52.74v0a.75.75,0,0,0,.68.53l13.56,2.07,18.21-18.23Z" transform="translate(-21.65 -17.57)"/><path d="M310.12,46.23a1.2,1.2,0,0,0,.78-.28l7.7-6.63a.84.84,0,0,0,0-1.32A1.25,1.25,0,0,0,317,38l-7.69,6.62a.85.85,0,0,0,0,1.33A1.23,1.23,0,0,0,310.12,46.23Z" transform="translate(-21.65 -17.57)"/><path d="M314.07,49.37a1.2,1.2,0,0,0,.76-.33l7.31-7.12a.86.86,0,0,0-.08-1.34,1.25,1.25,0,0,0-1.57.1l-7.3,7.12a.86.86,0,0,0,.08,1.34A1.27,1.27,0,0,0,314.07,49.37Z" transform="translate(-21.65 -17.57)"/><path d="M364.72,124.21a3.2,3.2,0,0,0-5.14-.23,1.54,1.54,0,0,1-.18.85.86.86,0,0,1,0,.17,1.41,1.41,0,0,1-1.27,2.06,1.28,1.28,0,0,1-1-.49,1.19,1.19,0,0,1-.65-.48,3.36,3.36,0,0,0-2.09,5c1.05,1.65,3.24,1.81,6.55,2l1.87.14a.36.36,0,0,0,.26-.07.39.39,0,0,0,.17-.21c.22-.65.44-1.26.64-1.8C365,128,365.77,125.86,364.72,124.21Z" transform="translate(-21.65 -17.57)"/><path d="M159.09,47.63A3.1,3.1,0,0,0,158,43.24a3.15,3.15,0,0,0-.88-.34,1.67,1.67,0,0,1-.85.2l-.16,0a1.41,1.41,0,0,1-2.4-.26,1.25,1.25,0,0,1,0-1.09,1.23,1.23,0,0,1,.15-.79,3,3,0,0,0-.86-.75,3.24,3.24,0,0,0-4.51,1c-1,1.66-.24,3.71,1,6.8.2.53.44,1.12.68,1.75a.41.41,0,0,0,.17.2.4.4,0,0,0,.26.06l1.9-.2C155.82,49.52,158.05,49.29,159.09,47.63Z" transform="translate(-21.65 -17.57)"/></svg>