<svg id="Layer_1" data-name="Layer 1" xmlns="http://www.w3.org/2000/svg" viewBox="0 0 166 235.26"><title>chair</title><path d="M731,411.06c0-9.38-12-17-26.79-17H591.79c-14.76,0-26.79,7.61-26.79,17V418c0,9.36,12,17,26.79,17H704.21C719,435,731,427.38,731,418Zm-18.44,7c0,2.91-3.75,5.29-8.36,5.29H591.79c-4.6,0-8.35-2.38-8.35-5.3v-6.95c0-2.92,3.74-5.29,8.35-5.29H704.21c4.6,0,8.35,2.37,8.35,5.3Z" transform="translate(-565 -263)"/><path d="M706.8,276.46C696.44,267.78,682.26,263,666.89,263H629.36c-15.39,0-29.55,4.78-39.92,13.46-10.92,9.15-16.38,21.88-15,34.91L583.72,398c.42,3.92,4.93,6.88,9.95,6.51s8.85-3.76,8.43-7.68l-9.25-86.66c-1-9.09,2.73-17.87,10.17-24.1,6.82-5.73,16.17-8.88,26.34-8.88h37.53c10.16,0,19.51,3.15,26.34,8.88,7.44,6.22,11.15,15,10.18,24.1L694.15,397c-.41,3.92,3.36,7.35,8.44,7.67.26,0,.52,0,.77,0,4.75,0,8.77-2.81,9.18-6.53l9.26-86.74C723.18,298.34,717.72,285.61,706.8,276.46Z" transform="translate(-565 -263)"/><path d="M612.56,427.24a9.23,9.23,0,0,0-11.5,6.16l-16,53a9.22,9.22,0,0,0,17.66,5.34l16-53A9.23,9.23,0,0,0,612.56,427.24Z" transform="translate(-565 -263)"/><path d="M684.89,426.13a9.22,9.22,0,0,0-5.29,11.92l19.88,51.64a9.23,9.23,0,0,0,17.22-6.63l-19.89-51.64A9.22,9.22,0,0,0,684.89,426.13Z" transform="translate(-565 -263)"/></svg>