<svg id="Layer_1" data-name="Layer 1" xmlns="http://www.w3.org/2000/svg" viewBox="0 0 96.2 89"><title>user-profile</title><g id="about"><path d="M649.46,341.37c10.79,0,19.54-9.93,19.54-22.19S660.25,297,649.46,297s-19.54,9.93-19.54,22.18S638.66,341.37,649.46,341.37Zm0-38c7.71,0,14,7.09,14,15.84s-6.25,15.85-14,15.85-14-7.09-14-15.85S641.75,303.34,649.46,303.34Z" transform="translate(-600.53 -297)"/><path d="M652.63,346h-8c-24.33,0-44.06,16.39-44.09,36.62,0,1.85,1.77,3.38,4,3.38h88.19c2.23,0,4-1.53,4-3.38C696.69,362.39,677,346,652.63,346Zm-42.85,33c2-14.8,17-26,34.94-26h7.81c17.91,0,33,11.2,34.94,26Z" transform="translate(-600.53 -297)"/></g></svg>