<svg id="icons" enable-background="new 0 0 64 64" height="512" viewBox="0 0 64 64" width="512" xmlns="http://www.w3.org/2000/svg"><path d="m43.005 12v.01h-14-8v-.01c0-6.08 4.92-11 11-11 6.07 0 11 4.92 11 11z" fill="#ed5565"/><path d="m35.005 10.95v1.03c0 .016-.45.029-1 .029h-4c-.55 0-1-.45-1-1v-1.019c0-.55.45-1 1-1h4c.55 0 1 .45 1 1z" fill="#656d78"/><path d="m32.005 25.01c7.54 0 10.58-5 10.58-5-.83 2.961-2.89 5.421-5.58 6.801-1.5.77-3.2 1.199-5 1.199s-3.5-.43-5-1.199c-2.689-1.38-4.74-3.83-5.58-6.79.179.299 3.27 4.989 10.58 4.989z" fill="#eac6bb"/><path d="m43.005 12.01v5c0 1.04-.14 2.051-.42 3 0 0-3.04 5-10.58 5-7.31 0-10.4-4.689-10.58-4.989-.27-.96-.42-1.971-.42-3.011v-5h8 6z" fill="#656d78"/><path d="m46.195 34h-4.19v-.01-2.9c1.79.301 3.31 1.4 4.19 2.91z" fill="#ffce54"/><path d="m27.005 26.811c1.5.77 3.2 1.199 5 1.199s3.5-.43 5-1.199v3.189 1.01h-10v-1.01z" fill="#d3b1a9"/><path d="m27.005 35.002c0 .55-.45 1-1 1h-3c-.55 0-1-.002-1-.005s0-.455 0-1.005v-3.992c0-.55.45-1 1-1h3c.55 0 1 .45 1 1z" fill="#656d78"/><path d="m42.005 35.002c0 .55-.45 1-1 1h-3c-.55 0-1-.002-1-.005s0-.455 0-1.005v-3.992c0-.55.45-1 1-1h3c.55 0 1 .45 1 1z" fill="#656d78"/><path d="m22.005 33.99v.01h-4.2v-.01c.88-1.51 2.4-2.6 4.2-2.9z" fill="#ffce54"/><path d="m27.005 31.01h10v2.99h-10z" fill="#ffce54"/><path d="m27.005 34h10 5 4.19 2.8l2.01 3h-38.01l2.01-3h2.8 4.2z" fill="#da4453"/><path d="m35.005 50.99h3v-5.99c0-1.66-1.34-3-3-3.01zm-22.01 4.01v-5-5-8h38.01v8 5 5 8h-38.01zm18.01-11.01h-2.5-2.5v2.01c0 .55.44.99.99.99h3.01v.01c.55 0 .99-.439 1-1v-.01z" fill="#ed5565"/><g fill="#da4453"><path d="m51.002 43.999h-3.002c-.553 0-1 .447-1 1s.447 1 1 1h3.002c.001 0 .002-.001.003-.001v-.998-1c-.001 0-.002-.001-.003-.001z"/><path d="m51.002 48.999h-3.002c-.553 0-1 .447-1 1s.447 1 1 1h3.002c.001 0 .002-.001.003-.001v-.998-1c-.001 0-.002-.001-.003-.001z"/><path d="m51.002 53.999h-3.002c-.553 0-1 .447-1 1s.447 1 1 1h3.002c.001 0 .002-.001.003-.001v-.998-1c-.001 0-.002-.001-.003-.001z"/><path d="m12.998 43.999h3.002c.553 0 1 .447 1 1s-.447 1-1 1h-3.002l-.003-.001v-.998-1z"/><path d="m12.998 48.999h3.002c.553 0 1 .447 1 1s-.447 1-1 1h-3.002l-.003-.001v-.998-1z"/><path d="m12.998 53.999h3.002c.553 0 1 .447 1 1s-.447 1-1 1h-3.002l-.003-.001v-.998-1z"/></g><path d="m28.502 59.013c-.553 0-1-.447-1-1v-11.003c0-.553.447-1 1-1s1 .447 1 1v11.003c0 .552-.447 1-1 1z" fill="#545c66"/><path d="m26.002 47.009c-.553 0-1-.447-1-1v-4.002c0-.553.447-1 1-1s1 .447 1 1v4.002c0 .553-.447 1-1 1z" fill="#545c66"/><path d="m31.003 47.009c-.553 0-1-.447-1-1v-4.002c0-.553.447-1 1-1s1 .447 1 1v4.002c0 .553-.447 1-1 1z" fill="#545c66"/><path d="m35.003 59.013c-.553 0-1-.447-1-1v-16.009c0-.553.447-1 1-1s1 .447 1 1v16.009c0 .552-.447 1-1 1z" fill="#545c66"/><path d="m34.997 41.004c-.553 0-1 .447-1 1v9.003h.006c.001.552.447.999 1 .999h3c.553 0 1-.447 1-1v-5.996c0-2.209-1.797-4.006-4.006-4.006z" fill="#656d78"/><path d="m28.501 45.005c-.553 0-1-.447-1-1v-1.998c0-.553.447-1 1-1s1 .447 1 1v1.998c0 .553-.447 1-1 1z" fill="#545c66"/><path d="m31.003 44.007h-5.001c-.553 0-1 .447-1 1v.999c0 .002-.001.003-.001.005 0 1.102.896 1.997 1.997 1.997h2.993c.004 0 .007.002.01.002 1.104 0 2.002-.898 2.002-2.002v-1.001c0-.553-.447-1-1-1z" fill="#656d78"/><path d="m43.005 12.011-.005-.001h-21.995v2h21.995l.005-.001z" fill="#ed5565"/><path d="m29.005 11.01h1v1h-1z" fill="#656d78"/></svg>